<svg version="1.1" xmlns="http://www.w3.org/2000/svg" xmlns:xlink="http://www.w3.org/1999/xlink" width="728.7441" height="949.15837" viewBox="0,0,728.7441,949.15837"><g transform="translate(123.62128,249.05698)"><g data-paper-data="{&quot;isPaintingLayer&quot;:true}" fill-rule="nonzero" stroke-linejoin="miter" stroke-miterlimit="10" stroke-dasharray="" stroke-dashoffset="0" style="mix-blend-mode: normal"><g><path d="M-87.2638,500.40215l-1.38116,-0.54655c7.53667,4.60464 19.60455,10.9713 31.53253,13.03837c-14.71554,-16.6141 -11.70997,-46.48914 9.51192,-56.04806c28.33048,-10.76972 44.69644,29.36201 33.32741,49.48188c-0.89728,1.58786 -2.27768,3.18964 -4.03079,4.76423c12.28491,-3.09728 21.5946,-12.73594 28.66152,-22.56889c0,0 3.83279,-5.31371 9.62321,-1.7964c5.79042,3.51731 1.95763,8.83091 1.95763,8.83091c-12.98996,17.9351 -35.7129,34.94975 -62.21227,27.54928c-10.96967,3.9369 -22.6519,5.90519 -29.58687,3.87609c-8.83102,-2.58391 -18.52636,-11.71954 -26.44999,-16.50009l-3.48467,-4.58712c0,0 -2.99317,-5.74984 3.27254,-8.49672c6.26571,-2.74688 9.25899,3.00307 9.25899,3.00307zM-36.8631,510.69375c3.99053,-2.07327 7.52231,-5.38595 10.3065,-10.31281c4.12576,-7.30115 -1.13443,-40.02 -15.05757,-32.03534c-16.2576,6.86426 -14.14615,36.64444 3.50567,41.99003c0.41763,0.12641 0.83277,0.24586 1.24551,0.35813z" fill="#e5c0d1" stroke="none" stroke-width="0.5" stroke-linecap="butt"/><g fill="none" stroke="#e3c9bf" stroke-width="2" stroke-linecap="round"><path d="M598.68345,367.26841l-51.67394,8.15904l-122.38566,-65.27235"/><path d="M555.16855,418.94236l-5.43936,-40.79522l54.39363,35.35586"/></g><g><path d="M127.06134,556.46294v119.66598" fill="none" stroke="#d3d4ff" stroke-width="2.5" stroke-linecap="round"/><path d="M166.03601,662.69619c31.78655,-9.63627 53.32479,-4.73551 53.55847,12.73692c0.25761,19.26459 -20.05711,25.1849 -53.26757,24.63357c-33.21046,-0.55144 -53.69695,-4.40001 -53.5131,-15.4702c0.18385,-11.07019 16.17068,-10.6679 53.2222,-21.90029z" fill="#0d0805" stroke="none" stroke-width="0" stroke-linecap="butt"/></g><g><path d="M314.71935,667.96987v-119.66598" fill="none" stroke="#d3d4ff" stroke-width="2.5" stroke-linecap="round"/><path d="M353.69402,654.53715c31.78655,-9.63627 53.32479,-4.73551 53.55847,12.73692c0.25761,19.26459 -20.05711,25.1849 -53.26757,24.63357c-33.21046,-0.55144 -53.69695,-4.40001 -53.5131,-15.4702c0.18385,-11.07019 16.17068,-10.6679 53.2222,-21.90029z" fill="#0d0805" stroke="none" stroke-width="0" stroke-linecap="butt"/></g><path d="M11.74675,572.23698c0,0 10.325,-137.8886 27.07127,-192.9652c16.74627,-55.07659 70.83725,-129.04496 70.83725,-129.04496l276.31962,2.20555c0,0 48.09593,45.78855 74.06454,126.40698c25.96871,80.61853 26.01973,193.39773 26.01973,193.39773z" fill="#e35b73" stroke="#b93f4c" stroke-width="1.5" stroke-linecap="butt"/><path d="M224.69877,-180.27556c-0.82243,-19.2078 3.96094,-54.00199 8.51815,-61.62526c13.51562,-22.6086 47.06974,20.26413 56.96122,41.28857c10.73339,22.81377 -4.83701,71.7279 -4.83701,71.7279l-23.6609,4.84462l-23.23804,9.97057c0,0 -12.12684,-28.44885 -13.74342,-66.2064z" fill="#f6b0e4" stroke="#cd9ad2" stroke-width="1.5" stroke-linecap="butt"/><path d="M218.98657,-121.3764c35.66177,-9.29337 255.09001,-51.39306 305.1601,-11.27101c12.42198,9.95403 78.38731,41.48732 55.85388,128.82706c-10.09622,39.13339 -158.66958,81.57184 -158.66958,81.57184c0,0 36.20929,102.59606 -20.3182,163.68554c-36.17959,39.09934 -121.83063,52.84852 -177.67471,52.84852c-104.54183,0 -189.28982,-89.15268 -189.28982,-199.12799c0,-109.97532 84.74799,-190.42501 184.93833,-216.53395z" fill="#f6b0e4" stroke="#cd9ad2" stroke-width="1.5" stroke-linecap="butt"/><path d="M490.16121,-140.78491c26.2508,-3.12263 66.46836,31.83681 83.72931,70.8465c17.26095,39.00969 7.70529,80.26095 -16.87062,90.00176c-76.39291,30.27865 -96.94206,-32.45069 -105.48676,-70.8465c-8.08779,-36.34245 3.57431,-85.83205 38.62807,-90.00176z" fill="#f6b0e4" stroke="#cd9ad2" stroke-width="1.5" stroke-linecap="butt"/><path d="M538.82098,-38.0594c-7.51013,0 -13.59841,-6.08817 -13.59841,-13.59841c0,-7.51024 6.08828,-13.59841 13.59841,-13.59841c7.51024,0 13.59841,6.08817 13.59841,13.59841c0,7.51024 -6.08817,13.59841 -13.59841,13.59841z" fill="#a85a96" stroke="none" stroke-width="0.5" stroke-linecap="butt"/><path d="M495.30608,-35.88376c-7.51013,0 -13.59841,-6.08817 -13.59841,-13.59841c0,-7.51024 6.08828,-13.59841 13.59841,-13.59841c7.51024,0 13.59841,6.08817 13.59841,13.59841c0,7.51024 -6.08817,13.59841 -13.59841,13.59841z" fill="#a85a96" stroke="none" stroke-width="0.5" stroke-linecap="butt"/><path d="M374.60902,135.75957c0,0 16.67154,81.84315 -53.87525,88.7642c-67.22824,4.06375 -75.48682,-58.72086 -75.48682,-58.72086c0,0 43.72943,13.55239 73.09133,5.64464c23.09901,-6.221 56.27075,-35.68809 56.27075,-35.68809z" fill="#53063c" stroke="#a05689" stroke-width="1.5" stroke-linecap="round"/><path d="M101.68498,33.79502c24.67991,-11.28428 54.89829,1.9016 67.49455,29.45121c12.59626,27.54972 2.80062,59.03079 -21.87929,70.31497c-24.67991,11.28428 -54.89829,-1.9016 -67.49455,-29.45121c-12.59626,-27.54972 -2.80062,-59.03079 21.87929,-70.31497z" fill="#f791d3" stroke="#f292d2" stroke-width="1.5" stroke-linecap="butt"/><path d="M396.30957,84.32626l27.19681,-5.43936" fill="none" stroke="#cd9ad2" stroke-width="1.5" stroke-linecap="round"/><path d="M421.87469,85.41413l-6.52724,-23.9332" fill="none" stroke="#cd9ad2" stroke-width="1.5" stroke-linecap="round"/><g stroke-linecap="butt"><path d="M334.66952,-110.5389c19.72998,0 35.72432,15.49446 35.72432,34.60794c0,19.11349 -15.99434,34.60794 -35.72432,34.60794c-19.72998,0 -35.72432,-15.49446 -35.72432,-34.60794c0,-19.11338 15.99434,-34.60794 35.72432,-34.60794z" fill="#fff0fe" stroke="#cd9ad2" stroke-width="1"/><path d="M335.93287,-60.36089c-7.51024,0 -13.59841,-6.08817 -13.59841,-13.59841c0,-7.51024 6.08817,-13.59841 13.59841,-13.59841c7.51024,0 13.59841,6.08817 13.59841,13.59841c0,7.51024 -6.08817,13.59841 -13.59841,13.59841z" fill="#000000" stroke="none" stroke-width="0.5"/></g><g stroke-linecap="butt"><path d="M230.23376,-84.42996c19.72998,0 35.72432,15.49446 35.72432,34.60794c0,19.11338 -15.99434,34.60794 -35.72432,34.60794c-19.72998,0 -35.72432,-15.49446 -35.72432,-34.60794c0,-19.11349 15.99434,-34.60794 35.72432,-34.60794z" fill="#fff0fe" stroke="#cd9ad2" stroke-width="1"/><path d="M231.4971,-34.25184c-7.51013,0 -13.59841,-6.08817 -13.59841,-13.59841c0,-7.51024 6.08828,-13.59841 13.59841,-13.59841c7.51024,0 13.59841,6.08817 13.59841,13.59841c0,7.51024 -6.08817,13.59841 -13.59841,13.59841z" fill="#000000" stroke="none" stroke-width="0.5"/></g><path d="M128.00496,-71.93912c0,0 -26.02963,-27.84236 -35.60552,-48.48049c-9.57589,-20.63814 -15.58791,-42.74741 -13.75985,-51.15122c5.42174,-24.92349 56.70416,-10.44564 72.27542,5.79488c16.89651,17.62277 15.55658,65.7558 15.55658,65.7558l-20.21887,11.75359l-18.24765,16.32744z" fill="#f6b0e4" stroke="#cd9ad2" stroke-width="1.5" stroke-linecap="butt"/><g data-paper-data="{&quot;index&quot;:null}" fill="none" stroke="#e3c9bf" stroke-width="2" stroke-linecap="round"><path d="M78.65743,314.78999l-135.77955,28.33125l-47.31223,-22.32314"/><path d="M-122.62128,363.652l62.12601,-18.68291l-16.66175,37.63277"/></g></g></g></g></svg>