<svg version="1.1" xmlns="http://www.w3.org/2000/svg" xmlns:xlink="http://www.w3.org/1999/xlink" width="77.67252" height="26.06186" viewBox="0,0,77.67252,26.06186"><g transform="translate(-156.49617,-129.24743)"><g data-paper-data="{&quot;isPaintingLayer&quot;:true}" fill-rule="nonzero" stroke-linecap="butt" stroke-linejoin="miter" stroke-miterlimit="10" stroke-dasharray="" stroke-dashoffset="0" style="mix-blend-mode: normal"><path d="M157.29167,154.54167v-14.75h76v14.75z" fill="#7f7f7f" stroke="#4e4e57" stroke-width="1.5"/><path d="M157.25,140.06667l0.04969,-9.81667l76.09046,-0.25l-0.3568,9.58333z" fill="#666666" stroke="#4e4e57" stroke-width="1.5"/><path d="M161.04167,135.29167c0,-1.10457 0.89543,-2 2,-2c1.10457,0 2,0.89543 2,2c0,1.10457 -0.89543,2 -2,2c-1.10457,0 -2,-0.89543 -2,-2z" fill="#1dff00" stroke="none" stroke-width="0.5"/><path d="M167.29167,135.29167c0,-1.10457 0.89543,-2 2,-2c1.10457,0 2,0.89543 2,2c0,1.10457 -0.89543,2 -2,2c-1.10457,0 -2,-0.89543 -2,-2z" fill="#ff0000" stroke="none" stroke-width="0.5"/><path d="M173.29167,135.29167c0,-1.10457 0.89543,-2 2,-2c1.10457,0 2,0.89543 2,2c0,1.10457 -0.89543,2 -2,2c-1.10457,0 -2,-0.89543 -2,-2z" fill="#ff0000" stroke="none" stroke-width="0.5"/><g stroke="#4e4e57" stroke-width="1.5"><path d="M167.04167,154.29167v-14h57.25v14z" fill="#666666"/><g fill="#e4c700"><path d="M172.29167,153.79843v-13.00676h16v13.37838z"/><path d="M202.54167,154.17005v-13.00676h16v13.37838z"/></g></g></g></g></svg>