<svg version="1.1" xmlns="http://www.w3.org/2000/svg" xmlns:xlink="http://www.w3.org/1999/xlink" width="46.01371" height="75.32648" viewBox="0,0,46.01371,75.32648"><g transform="translate(-214.79652,-96.64254)"><g data-paper-data="{&quot;isPaintingLayer&quot;:true}" fill-rule="nonzero" stroke-linejoin="miter" stroke-miterlimit="10" stroke-dasharray="" stroke-dashoffset="0" style="mix-blend-mode: normal"><path d="M223.62389,124.58334l-7.66666,-10l36,-17l7.66666,10.33333z" fill="#5e5e5e" stroke="#4e4e57" stroke-width="1.5" stroke-linecap="butt"/><path d="M216.38581,123.96429l-0.42857,-8.04763l7.66666,9.33334l0.14286,9.4762z" fill="#5e5e5e" stroke="#4e4e57" stroke-width="1.5" stroke-linecap="butt"/><path d="M224.29056,135.44049l-0.33333,-10.19048l35.33333,-16.66666l0.28571,10.19047z" fill="#5e5e5e" stroke="#4e4e57" stroke-width="1.5" stroke-linecap="butt"/><path d="M229.68019,113.69445c0,2.57733 -0.98993,4 -2.41667,4c-1.42674,0 -2.75,-1.42267 -2.75,-4c0,-2.57733 1.1566,-4.66667 2.58333,-4.66667c1.42674,0 2.58333,2.08934 2.58333,4.66667z" fill="#00ff5f" stroke="none" stroke-width="0" stroke-linecap="butt"/><path d="M249.51352,104.52778c0,2.57733 -0.98993,4 -2.41666,4c-1.42674,0 -2.75,-1.42267 -2.75,-4c0,-2.57733 1.15659,-4.66666 2.58333,-4.66666c1.42674,0 2.58334,2.08933 2.58334,4.66666z" fill="#ff0000" stroke="none" stroke-width="0" stroke-linecap="butt"/><path d="M223.80988,135.32709l-0.32355,-10.67038l10.94511,-5.11872l0.89498,10.52752z" fill="#e4c700" stroke="#4e4e57" stroke-width="1.5" stroke-linecap="butt"/><path d="M243.23845,126.6128l-0.32355,-10.67037l10.94511,-5.11873l0.89497,10.52752z" fill="#e4c700" stroke="#4e4e57" stroke-width="1.5" stroke-linecap="butt"/><g stroke="#4e4e57" stroke-width="1.5"><path d="M216.62066,143.0754l-0.42857,-19l7.71429,10.57143l35.57143,-15.85714l0.14286,17.28571l-35.38387,15.14009z" fill="#5e5e5e" stroke-linecap="butt"/><path d="M216.33495,124.93254l7.42857,25.42857" fill="none" stroke-linecap="round"/><path d="M223.4778,134.21825l-6.14286,8.85714" fill="none" stroke-linecap="round"/></g><g stroke="#4e4e57" stroke-width="1.5"><path d="M217.04923,162.93254l-0.42857,-19l7.57143,7.57143l35.42857,-15l0.42857,19.42857l-35.38387,15.14009z" fill="#5e5e5e" stroke-linecap="butt"/><path d="M216.76352,144.78968l7.42857,25.42857" fill="none" stroke-linecap="round"/><path d="M223.90638,151.64683l-6.14285,11.28571" fill="none" stroke-linecap="round"/></g></g></g></svg>